<?xml version="1.0" encoding="UTF-8"?>
<svg width="1365.3" height="1365.3" version="1.1" viewBox="0 0 1365.3 1365.3" xmlns="http://www.w3.org/2000/svg">
 <g transform="translate(39.922 36.728)">
  <path d="m560.06 1246.9c-32.747-9.1681-64.28-25.668-97.825-30.016-96.058-0.1595-192.12-0.3189-288.18-0.4783-0.22788-66.444-0.45576-132.89-0.68365-199.33 47.962-0.3059 95.967 0.7909 143.89-1.2269-23.982-122.88-56.297-244.77-83.763-367.2-1.1005-42.746-36.168 48.069-28.945-14.2-6.1147-33.296 11.845-66.685 2.1541-98.892-10.527-45.432-21.817-90.702-31.238-136.38 27.817-24.78 56.522-54.515 89.306-63.514-3.843-34.023 26.349-57.728 13.278-97.741 9.0422-29.227 32.355-54.531 46.926-81.917 15.459 1.5046 20.764 73.614 19.236 100.59-11.62 22.096-26.536 52.455 8.1785 22.782 75.542-51.256 156.27-95.698 227.48-152.82 36.459-24.902 75.371-52.545 112.01-11.064 15.364 16.771 77.086-0.75611 51.849 32.723 14.627 8.4256 59.124-7.8195 38.798 23.114 44.382 21.768 84.96 68.263 132.86 72.764 60.991 13.145 121.34 30.231 181.38 47.24 36.299 28.259-28.547 90.02 34.999 105.85-15.501 67.737-33.347 134.92-50.117 202.35-2.9364 25.692-1.6089 78.806-11.444 117.21 1.5928 23.956-30.458-2.1378-25.023 35.169-2.4363 51.446-18.211 96.64-35.436 144.42 1.257 35.508-45.652 103.83-14.829 120.46 41.951 6.206 104.54-11.208 133.74 9.4312 0.9192 63.392 0.1318 126.79 0.051 190.19-98.326 0.7511-197.06-1.027-295.13 1.3029-60.96 19.82-121.68 40.401-182.94 59.278-30.345-9.5729-60.425-19.981-90.595-30.087zm542.04-62.087c8.6575-35.948 19.107-104.08-6.02-130.57-291.78-1.5606-583.6-2.2299-875.37 0.1191-51.186 4.0278-14.433 88.58-22.783 125.23 44.852 13.267 99.102 3.081 147.35 6.6397 252.27-0.4703 504.59 1.6436 756.82-1.4192zm-557.7-841.43c20.094-34.632-65.821 17.69 0 0zm-29.667-0.9339c-11.909-34.065-20.131 7.3213 0 0zm-24-33.528c9.9979-6.0084 45.983-19.881 45.288 4.1555 29.833-45.002-41.449-8.3754-54.754-12.972 1.4753 2.7286 9.8141 24.177 9.4663 8.8168z" fill="#dfaa01"/>
  <path d="m560.06 1246.9c-32.747-9.1681-64.28-25.668-97.825-30.016-96.058-0.1595-192.12-0.3189-288.18-0.4783-0.22788-66.444-0.45576-132.89-0.68365-199.33 47.962-0.3059 95.967 0.7909 143.89-1.2269-23.982-122.88-56.297-244.77-83.763-367.2-1.1005-42.746-36.168 48.069-28.945-14.2-6.1147-33.296 11.845-66.685 2.1541-98.892-10.527-45.432-21.817-90.702-31.238-136.38 27.817-24.78 56.522-54.515 89.306-63.514-3.843-34.023 26.349-57.728 13.278-97.741 9.0422-29.227 32.355-54.531 46.926-81.917 15.459 1.5046 20.764 73.614 19.236 100.59-11.62 22.096-26.536 52.455 8.1785 22.782 75.542-51.256 156.27-95.698 227.48-152.82 36.459-24.902 75.371-52.545 112.01-11.064 15.364 16.771 77.086-0.75611 51.849 32.723 14.627 8.4256 59.124-7.8195 38.798 23.114 44.382 21.768 84.96 68.263 132.86 72.764 60.991 13.145 121.34 30.231 181.38 47.24 36.299 28.259-28.547 90.02 34.999 105.85-15.501 67.737-33.347 134.92-50.117 202.35-2.9364 25.692-1.6089 78.806-11.444 117.21 1.5928 23.956-30.458-2.1378-25.023 35.169-2.4363 51.446-18.211 96.64-35.436 144.42 1.257 35.508-45.652 103.83-14.829 120.46 41.951 6.206 104.54-11.208 133.74 9.4312 0.9192 63.392 0.1318 126.79 0.051 190.19-98.326 0.7511-197.06-1.027-295.13 1.3029-60.96 19.82-121.68 40.401-182.94 59.278-30.345-9.5729-60.425-19.981-90.595-30.087zm542.04-62.087c8.6575-35.948 19.107-104.08-6.02-130.57-291.78-1.5606-583.6-2.2299-875.37 0.1191-51.186 4.0278-14.433 88.58-22.783 125.23 44.852 13.267 99.102 3.081 147.35 6.6397 252.27-0.4703 504.59 1.6436 756.82-1.4192zm-330.11-169.65c15.712-11.544 15.975-49.042-7.3147-15.696-2.8522 5.4341-4.1139 28.868 7.3147 15.696zm29.386-2.4231c8.6297-25.798 36.295 31.765 55.459-2.3463-11.501-47.569-3.263-115.47-48.308-145.94-22.366-25.521-22.786 22.921-33.321-15.747-5.4784-33.513-9.075-68.496-30.018-96.587 37.444 40.392-0.96694-50.894-23.063-53.789-29.984-16.222-32.842-5.8618-38.423-45.007-29.552-1.4709 35.204-50.35-14.538-27.926-50.159 25.578 71.245-66.048 15.116-46.443-20.421 13.178-47.75 17.185-14.033-4.0956 24.178-26.62 12.843-48.063-14.007-19.714-41.164 4.2534-44.34 30.987-48.541 65.964 20.105-8.2285-9.4641 31.179 4.5012 45.533-8.5446 42.114-10.805-59.812-51.483-29.749-62.528-16.434 7.8309 72.773 22.062 50.936-14.385 17.577-51.509-4.8217-27.37 31.166 18.281 44.978-54.368-68.715-29.625-10.224 20.479 34.753 69.988 80.884 105.49 71.63-10.325-17.493 3.3476-100.01 13.114-75.491-9.5071 43.651 27.787 114.04 28.94 133.32-46.174-34.506 13.465 46.019 40.689 43.131 27.984 8.6515 33.657-28.608 53.668 9.0113 35.239 7.8809 26.081 57.222 46.231 80.579 46.595 26.229-32.382 0.72758-21.894 40.789-2.5261 5.1516 4.2314 17.929 9.3543 1zm34.19-46.061c-11.062-23.091-4.44-66.455 2.1583-18.514-0.37949-0.0179 3.9736 23.92-2.1583 18.514zm-119.44-125.78c-32.295-16.269-46.27-61.854-28.062-92.698-4.0958 35.247 20.473 76.368 35.799 96.298zm-358.87 174.51c20.937-1.823 33.637-59.507 1.4053-21.665-2.1229 2.127-14.793 33.755-1.4053 21.665zm28.173 0.7943c19.01-24.53 18.492 17.811 49.21-3.8203 33.951-7.4873 49.529-80.912 62.234-76.798 10.991 16.202 40.808-33.06 7.3606-41.301-15.977-26.293-22.451-70.909-55.805-75.474 20.17 1.894 105.69-6.6648 86.867-17.605-22.442 4.248-94.162 4.5839-37.87-11.986 78.638-35.943-42.558-12.821-36.698-21.557 31.57-8.3497 81.963-27.182 34.786-53.006-29.973-5.7213-87.056 17.545-90.88 35.706 58.47-18.293-56.305 46.363-24.713 71.965 35.182-18.731 7.1834 40.11 44.416 48.134 21.845 15.914 91.403 47.845 37.65 58.022-31.016 22.148-16.914 60.033-56.978 52.373-10.975-5.9733-34.833 43.244-19.58 35.347zm67.795-147.43c-13.634-12.923-45.456-53.189-8.8031-20.344 8.1374 5.4751 31.144 47.873 8.8031 20.344zm-106.68 134.18c18.37-35.921-19.468 5.9411-6.0376 12.319l2.3023-4.287zm397.51 11.011c15.392-5.4423 20.344-50.629-2.5634-14.315-3.1004-0.29975-1.2694 26.846 2.5634 14.315zm220.72-145.58c70.224-14.543 68.391-104.74 20.731-143.86-47.044-27.862-25.191-123.94 32.96-98.16-42.546-3.0602 28.279 30.015-7.5213 29.373-0.8264 30.936 61.208 71.043 37.559 15.283-7.3525-39.745 18.754 29.42 15.551-14.299 0.2975-26.787-35.641-49.038-17.772-55.928-52.143-10.63-117.39 37.525-99.772 93.79 28.272 42.797 91.869 111.58 23.304 150.81-63.005 19.686-120.04-29.937-163.91-68.813-41.991-34.763 0.37134 39.772 25.398 44.502 37.226 29.65 83.881 57.56 133.47 47.299zm-436.15-191.38c10.755-30.498-48.016-72.226-33.19-25.93 5.2847 12.639 16.37 33.79 33.19 25.93zm52.092-57.118c30.696-18.836 19.989-61.497-18.88-45.259-50.762-35.862-54.012 57.431-3.0942 47.709 7.3797 0.24569 14.927 0.17892 21.975-2.4494zm-74.17-4.9776c22.836-30.988-39.455-69.914-35.1-27.028 3.6614 14.728 17.284 35.911 35.1 27.028zm363.5-2.5023c27.928-10.109 76.844-14.622 100.43-46.259 23.59-27.735-64.554-25.41-87.934-38.609-22.811-3.9904-50.158 50.62-30.865 4.2907 11.805-15.505-26.604-26.476-16.648-51.154-14.128-16.884-82.94-16.813-26.448-23.042 47.999 2.1709-35.801-86.04-57.038-37.753-32.471 18.917-13.811-8.9546-13.834-18.962-22.046 11.857-69.843 75.177-50.808 24.705-26.268 13.089-89.838 60.801-74.978 15.678-25.824 10.29-44.632 62.957-62.891 62.675-13.359-61.224-52.82 68.928 6.668 54.551 21.145 4.1949 87.12-9.4512 68.161-20.596 39.336-10.124 73.54-38.071 92.951-71.783-27.159 48.137 54.105 0.48805 19.954 39.342 9.9587 59.295 77.853 66.335 111.23 105.98 5.4419 1.0824 21.357 11.493 22.045 0.93925zm-4.7474-21.153c-49.39-13.738 51.03-9.5908 52.298-13.835-13.941 11.507-34.312 18.604-52.298 13.835zm-65.253-33.964c-29.301-8.8228-45.395-38.239-7.1888-13.132 22.768 0.37212 52.821 5.3533 15.668 14.878zm-389.47 21.212c23.051-21.05 4.3307-51.44-12.256-20.125 17.852-51.523-27.902-86.03-68.072-104.98-28.27 6.689 23.712-86.702-25.736-78.655-23.787 22.771-19.08 50.271 12.157 22.515-24.362 51.314-30.709 92.93 9.6735 138.21 27.428 28.893 59.72 42.693 84.234 43.038zm-46.888-47.337c-26.93-7.2517-55.652-58.156-15.987-15.835 1.9532 3.4229 37.26 22.985 15.987 15.835zm133.64 23.741c23.724-13.903-23.877-87.189-22.134-32.884-30.951-62.258-23.663 60.943 22.134 32.884zm550.37-40.166c31.357-34.527 78.466-121.28 4.1403-134.13-44.719 16.88 44.178 15.709 28.8 49.799-6.579-33.24-83.903-23.98-35.587-5.8413 27.798 10.105 31.166 44.306 2.1656 13.311-37.247-19.801-30.488 23.657 1.454 26.558 20.085 6.1603-26.855 69.308-0.9727 50.306zm-533.01-18.603c13.449-31.741 49.566-75.28 72.886-82.651-19.894 10.363-49.676 85.961-11.321 37.529 23.168-24.581 69.11-57.031 91.196-57.892-13.545 14.514-53.181 59.28-7.6948 31.027 34.742-16.453 54.642-76.33 66.993-91.454 3.2278 20.284-26.243 89.121 8.8861 40.349 22.874-17.91 19.026-117.08 28.874-41.56 4.589 21.596-14.044 80.375 10.529 32.441 25.294-42.607-13.878-108.06-17.564-133.69 21.966 12.327 58.241 83.425 36.2 21.378-6.5312-24.006-57.167-61.183-4.7381-41.574-15.457-22.413-45.732-28.831-32.735-44.966-21.842-5.7235-70.547-8.6582-27.16-24.785-26.11-7.8446-51.767-5.4956-77.442 1.9353 40.804-37.772-52.631-9.4981-62.601 12.184-11.215-36.684-24.933 39.827-1.5452 27.132-26.535 4.6518-69.395 27.565-60.237 44.868-22.09-1.8938-84.815 28.247-31.012 25.254 38.541-8.4692-31.523 51.072 20.776 32.83 19.123-13.481 74.375 13.709 38.655-23.196-41.4-13.239 43.27-4.7035 24.759 29.925 17.099 52.243-56.438 70.976-77.326 61.259 42.538 10.558-18.621 10.384 17.154 29.189 42.946 6.6161 88.911-41.85 86.529-88.595-2.9234-32.677 11.809 26.354 21.933-9.92 27.807-33.134-23.664 58.74 1.5131 31.625-7.0533 45.651 46.517-53.597 31.121-46.023 26.057 69.198-61.286 96.71-103.55 129.19-21.478 16.458-59.165 63.15-28.387 10.053-19.695-49.316-47.959 42.58-37.211-6.1427-5.9075-24.035-36.108 45.58-24.02 66.23 3.3559 34.126 34.557-70.22 28.249-7.1581 3.6208 9.6446 3.1866 80.011 18.291 35.206zm124.02-119.45c52.272-28.086 57.601-94.463 50.692-126.66-4.7057-16.539-16.574-25.908-12.516-36.356 32.361-29.616 33.66 17.136 20.484 32.778 54.95-10.3 10.43-94.505-30.994-47.651-17.571-15.945 71.695-43.718 69.02 8.2601-11.626 31.42-0.32859 63.978-3.021 94.32-6.5528-25.914-21.074-48.651-20.729-6.5718-8.145 36.701-31.315 78.766-72.937 81.882zm-108.79-133.15c9.1373-15.785 28.62-8.3682 3.9027 0.81644zm46.791-2.4818c-27.539-0.51988-46.313-30.4-8.2364-19.658 30.783-16.94 83.29-5.4291 29.707 19.04l-11.883 1.7995zm-31.333-28.975c5.4371-13.627 4.3067 4.2341 0 0zm90.235-14.676c-17.702-33.37 72.102-48.842 20.883-23.982-11.496 1.1828-14.102 23.412-20.883 23.982zm-33.391-13.266c-6.2862-31.919 49.495-49.811 13.634-16.212l-6.3179 7.8422zm-172.71 322.03c19.809-24.944 21.636-81.711 28.276-98.72-19.515 33.382-92.973 63.678-38.909 101.62zm-159.65-44.332c7.1079-35.333-82.108-8.1425-27.297 2.7389 8.6468-4.6476 21.478 8.3945 27.297-2.7389zm5.4036-26.203c12.693-42.529-92.205-4.3775-30.935 0.1023 10.263-3.4032 22.904 8.7998 30.935-0.1023zm0.10948-33.214c3.3881-37.752-84.21-6.7121-26.088 3.1955 7.7764-1.644 21.121 5.2058 26.088-3.1955zm9.9123-22.197c14.593-42.287-85.903-17.263-28.611-5.1854 10.221-5.4523 21.949 13.813 28.611 5.1854zm259.1-36.847c20.094-34.632-65.821 17.69 0 0zm-29.667-0.9339c-11.909-34.065-20.131 7.3213 0 0zm-24-33.528c9.9979-6.0084 45.983-19.881 45.288 4.1555 29.833-45.002-41.449-8.3754-54.754-12.972 1.4753 2.7286 9.8141 24.177 9.4663 8.8168zm-9.5617-26.271c-23.636-53.778-24.984 9.1 0 0zm76.008-99.702c9.8627-21.592-20.955 7.4163 0 0z" fill="#b21e5d"/>
  <path d="m616.06 1265.8c-49.317-15.816-98.121-34.82-147.72-48.995-98.094-0.1207-196.19-0.2415-294.28-0.3623-0.22788-66.444-0.45576-132.89-0.68365-199.33 48.244-0.7018 96.782 1.7498 144.79-1.8062-28.048-127.73-58.143-255.12-88.998-382.19-37.199 64.96-24.4-47.237-19.079-74.246-6.0835-48.328-22.727-96.241-31.536-144.58-8.5008-36.871 49.987-46.455 66.099-71.532 34.844 8.9091 6.5851-39.913 34.395-47.987 2.4004-28.9-10.591-61.173 12.876-84.882 16.157-26.931 46.156-89.587 45.53-23.274 14.939 33.842 0.1251 88.217-5.8184 105.58 87.978-56.662 178.11-111.5 261.78-173.75 34.441-31.483 69.899-31.769 103.68 0.33296 15.814 11.407 73.382-1.1797 45.636 29.305 21.476 6.3676 53.996-3.6751 42.785 25.429 41.772 22.703 80.97 59.251 124.96 72.099 29.82-2.2428 60.491 15.149 90.563 19.684 39.857 17.042 134.49 9.3782 103.01 77.15-24.833 42.093 52.719 46.817 18.899 92.243-13.374 55.013-27.465 109.85-41.245 164.76-3.9403 22.996 0.4588 74.042-11.439 109.78 7.2065 34.246-29.791 2.955-25.061 42.718-1.7593 52.963-20.553 98.997-36.544 148.59 0.6879 40.483-63.831 134.07 15.592 116.26 34.827 0.376 69.655 0.6561 104.48 0.983-0.3629 65.86 1.9363 131.84-0.8952 197.61-97.798 4.5749-196.45-0.7148-294.16 2.2847-61.024 19.757-121.72 40.564-183.06 59.336-11.636-3.366-23.076-7.3527-34.555-11.206zm486.04-80.95c8.6575-35.948 19.107-104.08-6.02-130.57-291.78-1.5606-583.6-2.2299-875.37 0.1191-51.186 4.0278-14.433 88.58-22.783 125.23 44.852 13.267 99.102 3.081 147.35 6.6397 252.27-0.4703 504.59 1.6436 756.82-1.4192zm-331.04-168.82c23.296-16.721 8.4413-50.718-7.8484-10.753-1.3671 5.3601-1.208 20.389 7.8484 10.753zm30.312-3.2572c8.6297-25.798 36.295 31.765 55.459-2.3463-11.501-47.569-3.263-115.47-48.308-145.94-22.523-28.032-21.441 26.752-32.948-14.619-6.0792-33.785-9.0127-69.304-30.391-97.714 37.444 40.392-0.96694-50.894-23.063-53.789-29.984-16.222-32.842-5.8618-38.423-45.007-29.552-1.4709 35.204-50.35-14.538-27.926-50.159 25.578 71.245-66.048 15.116-46.443-20.421 13.178-47.75 17.185-14.033-4.0956 24.178-26.62 12.843-48.063-14.007-19.714-41.164 4.2534-44.34 30.987-48.541 65.964 17.733-7.3868-7.2254 35.546 3.7113 51.055-10.69 25.744-7.4528-55.675-41.066-35.137-61.696-30.693-27.255 74.513 15.932 44.479-7.8251 26.905-57.769-0.61696-30.826 37.577 18.441 43.294-56.805-68.692-28.862-8.9208 20.61 33.939 69.942 79.965 104.68 70.237-10.325-17.493 3.3476-100.01 13.114-75.491-9.5071 43.651 27.787 114.04 28.94 133.32-46.174-34.506 13.465 46.019 40.689 43.131 27.984 8.6515 33.657-28.608 53.668 9.0113 36.237 7.6531 24.804 59.102 47.52 81.275 43.402 26.201-32.619-0.11989-23.143 38.784-6.2677 12.868 6.8579 10.04 9.3146 2.3084zm34.19-46.061c-11.062-23.091-4.44-66.455 2.1583-18.514-0.37949-0.0179 3.9736 23.92-2.1583 18.514zm-119.44-125.78c-32.295-16.269-46.27-61.854-28.062-92.698-4.0958 35.247 20.473 76.368 35.799 96.298zm-358.87 174.51c20.937-1.823 33.637-59.507 1.4053-21.665-2.1229 2.127-14.793 33.755-1.4053 21.665zm28.173 0.7943c19.01-24.53 18.492 17.811 49.21-3.8203 33.951-7.4873 49.529-80.912 62.234-76.798 10.991 16.202 40.808-33.06 7.3606-41.301-19.004-25.613-16.432-69.511-57.337-75.363 29.249-4.0199 83.109 2.636 95.004-18.74-21.674 5.1652-103.06 6.7889-44.474-10.962 78.638-35.943-42.558-12.821-36.698-21.557 31.57-8.3497 81.963-27.182 34.786-53.006-29.973-5.7213-87.056 17.545-90.88 35.706 58.47-18.293-56.305 46.363-24.713 71.965 35.182-18.731 7.1834 40.11 44.416 48.134 21.845 15.914 91.403 47.845 37.65 58.022-29.148 27.814-21.539 60.526-66.759 56.929-4.2943-1.3741-24.606 41.97-9.7995 30.79zm59.083-157.24c-62.303-78.723 61.692 59.605 0 0zm-97.967 143.99c18.4-37.61-19.674 7.0741-6.0376 12.319l2.3023-4.287zm397.51 11.011c15.392-5.4423 20.344-50.629-2.5634-14.315-3.1004-0.29975-1.2694 26.846 2.5634 14.315zm220.72-145.58c70.224-14.543 68.391-104.74 20.731-143.86-47.044-27.862-25.191-123.94 32.96-98.16-41.775-2.0438 27.99 29.308-7.4788 30.91-0.4091 28.052 61.626 71.033 37.75 15.465-8.785-41.991 18.605 27.693 15.317-16.017 0.2975-26.787-35.641-49.038-17.772-55.928-52.143-10.63-117.39 37.525-99.772 93.79 28.272 42.797 91.869 111.58 23.304 150.81-62.917 19.673-119.9-29.83-163.73-68.642-43.65-37.492 1.9474 42.516 28.31 46.76 36.572 28.613 82.096 54.957 130.38 44.87zm-630.2-47.609c18.309-9.2244 38.151-33.776 21.733-41.247 21.661-53.685 77.112-87.1 133.79-89.185-18.842-32.606-23.374-90.834-49.846-108.75-40.424 53.183-99.311-3.6844-133.79-34.334-13.628-16.109-31.193-66.256-37.793-15.359-4.4785 27.168-28.665 53.171-17.898 81.08 18.979 75.986 34.048 153.45 55.022 228.57 10.435-4.9686 19.18-14.086 28.783-20.782zm194.06-143.77c10.755-30.498-48.016-72.226-33.19-25.93 5.2847 12.639 16.37 33.79 33.19 25.93zm52.092-57.118c30.696-18.836 19.989-61.497-18.88-45.259-50.762-35.862-54.012 57.431-3.0942 47.709 7.3797 0.24569 14.927 0.17892 21.975-2.4494zm-74.17-4.9776c22.836-30.988-39.455-69.914-35.1-27.028 3.6614 14.728 17.284 35.911 35.1 27.028zm363.5-2.5023c27.827-10.155 76.753-14.434 100.25-46.092 24.247-27.917-64.385-25.545-87.748-38.776-25.124-0.71223-52.157 52.383-28.296 0.69115-0.0993-11.558-25.519-25.91-19.217-47.555-14.128-16.884-82.94-16.813-26.448-23.042 47.999 2.1709-35.801-86.04-57.038-37.753-32.471 18.917-13.811-8.9546-13.834-18.962-22.046 11.857-69.843 75.177-50.808 24.705-26.268 13.089-89.838 60.801-74.978 15.678-25.824 10.29-44.632 62.957-62.891 62.675-13.359-61.224-52.82 68.928 6.668 54.551 21.145 4.1949 87.12-9.4512 68.161-20.596 39.336-10.124 73.54-38.071 92.951-71.783-27.159 48.137 54.105 0.48805 19.954 39.342 9.9587 59.295 77.853 66.335 111.23 105.98 5.4419 1.0824 21.357 11.493 22.045 0.93925zm-4.7474-21.153c-48.376-7.6253 104.72-28.211 34.009-3.1025-10.742 3.9802-22.701 6.7642-34.009 3.1025zm-65.253-33.964c-29.301-8.8228-45.395-38.239-7.1888-13.132 22.768 0.37212 52.821 5.3533 15.668 14.878zm-389.51 21.241c23.103-21.012 4.3929-51.505-12.216-20.154 17.852-51.523-27.902-86.03-68.072-104.98-28.27 6.689 23.712-86.702-25.736-78.655-23.787 22.771-19.08 50.271 12.157 22.515-23.46 49.983-30.994 90.643 6.8943 134.93 28.176 30.038 59.581 47.709 86.972 46.349zm-46.7-47.316c-26.595-6.8122-52.943-54.687-16.125-15.876 1.8706 3.3675 37.157 22.923 16.125 15.876zm133.93 23.257c23.811-14.815-24.946-86.124-22.566-32.451-30.874-62.571-23.862 61.818 22.566 32.451zm549.93-39.732c31.357-34.527 78.466-121.28 4.1403-134.13-44.719 16.88 44.178 15.709 28.8 49.799-6.579-33.24-83.903-23.98-35.587-5.8413 27.798 10.105 31.166 44.306 2.1656 13.311-43.789-16.553-22.102 19.986 3.1588 29.228 13.2 5.0524-26.69 69.226-2.6775 47.636zm-533.01-18.603c13.449-31.741 49.566-75.28 72.886-82.651-20.168 10.659-49.683 86.308-10.955 37.16 22.822-23.953 68.631-56.879 90.834-57.189-13.865 14.155-53.013 59.002-7.6982 30.694 34.697-16.35 54.798-76.612 66.922-91.359 3.2358 20.247-26.111 89.007 8.9561 40.253 22.874-17.91 19.026-117.08 28.874-41.56 4.589 21.596-14.044 80.375 10.529 32.441 25.294-42.607-13.878-108.06-17.564-133.69 21.966 12.327 58.241 83.425 36.2 21.378-6.6201-24.265-57.114-60.798-4.7578-41.565-15.4-22.431-45.729-28.835-32.715-44.974-21.842-5.7235-70.547-8.6582-27.16-24.785-26.11-7.8446-51.767-5.4956-77.442 1.9353 40.804-37.772-52.631-9.4981-62.601 12.184-11.215-36.684-24.933 39.827-1.5452 27.132-26.535 4.6518-69.395 27.565-60.237 44.868-22.09-1.8938-84.815 28.247-31.012 25.254 37.151-7.8592-30.883 53.683 23.847 31.953 19.182-10.198 70.104 12.117 35.584-22.319-41.4-13.239 43.27-4.7035 24.759 29.925 26.229 60.075-85.514 68.111-74.903 62.465 37.174 9.2937-20.723 10.188 14.732 27.984 42.946 6.6161 88.911-41.85 86.529-88.595-2.9234-32.677 11.809 26.354 21.933-9.92 27.807-33.134-23.664 58.74 1.5131 31.625-7.0533 45.651 46.517-53.597 31.121-46.023 26.057 69.245-61.343 96.722-103.64 129.22-21.453 16.513-59.044 63.074-28.295 10.024-19.695-49.316-47.959 42.58-37.211-6.1427-5.9075-24.035-36.108 45.58-24.02 66.23 3.3559 34.126 34.557-70.22 28.249-7.1581 3.6208 9.6446 3.1866 80.011 18.291 35.206zm124.02-119.45c52.272-28.086 57.601-94.463 50.692-126.66-4.7057-16.539-16.574-25.908-12.516-36.356 32.361-29.616 33.66 17.136 20.484 32.778 53.547-8.9613 12.789-93.732-29.03-48.798-24.237-3.0772 53.58-45.929 63.188-3.8008 6.2818 35.485-8.9322 65.443 3.0051 102.52-4.1376 11.846-20.717-56.708-21.745-6.1495-7.537 38.099-30.703 83.046-74.078 86.469zm-108.79-133.15c9.1373-15.785 28.62-8.3682 3.9027 0.81644zm46.272-2.5764c-26.918-0.28016-46.021-31.514-7.7176-19.563 30.783-16.94 83.29-5.4291 29.707 19.04l-11.985 1.8078zm22.918-10.79c3.7411-26.985-38.882 17.333 0 0zm-53.733-18.09c5.4371-13.627 4.3067 4.2341 0 0zm90.235-14.676c-17.789-33.047 72.613-49.13 20.883-23.982-11.496 1.1828-14.102 23.412-20.883 23.982zm-33.391-13.266c-6.7487-31.015 50.174-51.144 13.365-15.961l-6.1309 7.7075zm-175.26 323.65c23.879-23.201 23.153-83.046 30.827-100.33-19.223 34.171-105.46 73.198-30.827 100.33zm-199.08-13.947c-2.9647-41.565-12.963 21.78 0 0zm41.975-31.998c7.1079-35.333-82.108-8.1425-27.297 2.7389 8.6468-4.6476 21.478 8.3945 27.297-2.7389zm120.18-6.8315c34.376-30.39 64.453-67.928 98.598-94.184 7.1603-42.072-47.046-67.73-34.275-115.21-43.039 25.037-83.818 53.869-126.15 80.126-37.844 37.327 27.544 45.459 12.767 89.719-10.967 30.276 29.771 56.333 49.062 39.55zm-114.78-19.372c12.693-42.529-92.205-4.3775-30.935 0.1023 10.263-3.4032 22.904 8.7998 30.935-0.1023zm-67.215-15.126c27.498-40.918-24.838-6.3006 0 0zm67.324-18.087c3.3881-37.752-84.21-6.7121-26.088 3.1955 7.7764-1.644 21.121 5.2058 26.088-3.1955zm9.9123-22.197c14.593-42.287-85.903-17.263-28.611-5.1854 10.221-5.4523 21.949 13.813 28.611 5.1854zm259.97-36.694c29.963-19.97 22.879-34.981-5.915-17.763-8.2399 24.616-17.135-4.2689-29.959 7.9708-27.218 3.6944 24.333 16.931 35.874 9.7926zm-51.207-39.126c18.239 5.5784 39.896-17.949 41.801 10 35.706-43.565-53.932-2.5953-53.024-10.15 9.3539 17.551 4.3865 10.933 11.224 0.14998zm-12.895-21.76c-23.636-53.778-24.984 9.1 0 0zm24.176-63.996c25.282-27.626-38.802 14.369 0 0zm-178.32-13.82c-2.2119 4.1833 3.2295 7.1956 0 0zm230.16-21.886c9.8627-21.592-20.955 7.4163 0 0z" fill="#313ea8"/>
  <path d="m641.4 1272.9c-57.263-18.774-114.12-40.427-171.72-57.436-98.094-0.121-196.19-0.242-294.28-0.3631-0.22795-65.556-0.45591-131.11-0.68386-196.67 48.559-0.746 97.421 1.8629 145.74-1.9127-15.24-86.643-39.961-172.41-58.356-258.8-6.7307-43.631-27.45-90.22-26.378-132.56-18.574 22.537-33.947 46.187-30.033 0.1557 5.7995-52.4 7.3752-103.91-11.107-154.45 3.1405-25.809-32.099-64.794-5.6104-82.725 29.421-16.993 47.347-45.035 77.127-50.64-2.4279-34.026 26.609-55.978 13.011-96.683 10.147-27.582 36.326-73.582 52.088-84.589 8.9474 48.652 21.402 99.287-7.2954 143.62 74.097-44.247 148.71-96.267 222.97-143.72 33.984-21.741 75.006-71.023 115.29-55.411 25.4 29.699 94.608 16.211 85.27 50.301 25.885 1.4692 43.194-0.65714 37.001 25.162 18.076 9.1435 41.282 27.784 20.744 22.183 15.838 37.309-2.0302 49.752 17.011 90.809 1.9737 24.989 10.875 92.092-16.807 60.931-23.781 35.505 38.569 78.608 44.921 90.467 15.547-61.131 31.467-122.45 45.758-183.71 42.132-25.861 95.89 15.278 142.33 19.812 49.472 2.8545 91.315 29.84 60.216 83.081-2.6487 26.802 50.727 48.248 12.279 62.048-8.7036 50.969-45.15 93.116-79.699 129.83-43.75 20.571-73.917 67.975-125.45 75.561-49.962 38.313-96.473-27.117-140.16-45.846-14.601 4.3017-45.731 40.764-50.719 64.562 18.803 37.981 59.743 72.209 90.749 105.73 41.859 37.637 89.71 87.007 150.81 82.147 63.977-28.338-2.2362-94.215-24.501-129.22-27.496-68.124 52.231-133.08 117.14-121.07 32.922 0.29182 39.36 27.225 20.278 36.195 19.843 31.257 0.9719 82.435-4.3039 107.93-41.366-6.272-68.634-47.937-81.6-76.103-31.167 50.074 55.325 80.779 52.78 131.52 13.565 59.482-41.207 113.83-100.4 105.87-53.781-3.9175-97.341-39.101-141.47-66.233 29.324 31.209 77.661 58.858 69.877 114.81 17.237 25.03-5.3105 88.258 38.742 77.043 74.814 1.4546 149.56 4.8646 224.43 4.5845-0.2752 65.614 1.8596 131.43-0.7724 196.89-97.99 0.4161-196.39-1.7526-294.13 0.2734-60.702 19.959-121.23 40.479-182.26 59.41l-8.8396-2.77zm464.8-89.666c10.455-14.087 1.6185-36.165 4.5334-53.376-1.4641-23.419 2.9585-49.277-2.1586-71.183-11.589-14.276-33.497-3.6395-49.645-6.9081h-855.13c-17.484 12.295-5.62 36.747-9.0667 54.857 1.4546 24.441-2.9506 51.308 2.1586 74.235 11.589 14.277 33.497 3.6396 49.645 6.9082h855.13c1.5111-1.5111 3.0222-3.0223 4.5333-4.5334zm-335.13-167.21c23.296-16.721 8.4413-50.718-7.8484-10.753-1.3671 5.3601-1.208 20.389 7.8484 10.753zm30.312-3.2572c8.6297-25.798 36.295 31.765 55.459-2.3463-11.501-47.569-3.263-115.47-48.308-145.94-22.523-28.032-21.441 26.752-32.948-14.619-6.0792-33.785-9.0127-69.304-30.391-97.714 37.444 40.392-0.96694-50.894-23.063-53.789-29.984-16.222-32.842-5.8618-38.423-45.007-29.552-1.4709 35.204-50.35-14.538-27.926-50.159 25.578 71.245-66.048 15.116-46.443-20.421 13.178-47.75 17.185-14.033-4.0956 24.178-26.62 12.843-48.063-14.007-19.714-41.164 4.2534-44.34 30.987-48.541 65.964 17.733-7.3868-7.2254 35.546 3.7113 51.055-10.69 25.744-7.4528-55.675-41.066-35.137-61.696-30.693-27.255 74.513 15.932 44.479-7.8251 26.905-57.769-0.61696-30.826 37.577 18.441 43.294-56.805-68.692-28.862-8.9208 20.61 33.939 69.942 79.965 104.68 70.237-10.325-17.493 3.3476-100.01 13.114-75.491-9.5071 43.651 27.787 114.04 28.94 133.32-46.174-34.506 13.465 46.019 40.689 43.131 27.984 8.6515 33.657-28.608 53.668 9.0113 36.237 7.6531 24.804 59.102 47.52 81.275 43.402 26.201-32.619-0.11989-23.143 38.784-6.2677 12.868 6.8579 10.04 9.3146 2.3084zm34.19-46.061c-11.062-23.091-4.44-66.455 2.1583-18.514-0.37949-0.0179 3.9736 23.92-2.1583 18.514zm-119.44-125.78c-32.295-16.269-46.27-61.854-28.062-92.698-4.0958 35.247 20.473 76.368 35.799 96.298zm-358.87 174.51c20.937-1.823 33.637-59.507 1.4053-21.665-2.1229 2.127-14.793 33.755-1.4053 21.665zm28.173 0.7943c19.01-24.53 18.492 17.811 49.21-3.8203 33.951-7.4873 49.529-80.912 62.234-76.798 10.991 16.202 40.808-33.06 7.3606-41.301-19.004-25.613-16.432-69.511-57.337-75.363 29.249-4.0199 83.109 2.636 95.004-18.74-21.674 5.1652-103.06 6.7889-44.474-10.962 78.638-35.943-42.558-12.821-36.698-21.557 31.57-8.3497 81.963-27.182 34.786-53.006-29.973-5.7213-87.056 17.545-90.88 35.706 58.47-18.293-56.305 46.363-24.713 71.965 35.182-18.731 7.1834 40.11 44.416 48.134 21.845 15.914 91.403 47.845 37.65 58.022-29.148 27.814-21.539 60.526-66.759 56.929-4.2943-1.3741-24.606 41.97-9.7995 30.79zm59.083-157.24c-62.303-78.723 61.692 59.605 0 0zm-97.967 143.99c18.4-37.61-19.674 7.0741-6.0376 12.319l2.3023-4.287zm397.51 11.011c15.392-5.4423 20.344-50.629-2.5634-14.315-3.1004-0.29975-1.2694 26.846 2.5634 14.315zm-160.33 0.8587c-10.327-2.0751-1.9828 2.1448 0 0zm50-0.057c-25.172-1.805-5.0099 1.8123 0 0zm90.087-6.6904c5.3023-17.064-10.719 21.054-14.832 3.82 32.631-18.336-52.08-3.4709-66.795-9.0914 5.7119 21.497 46.47 10.368 71.015 12.932 7.4583-0.2105 13.424 2.6693 10.613-7.6605zm-51.359 5.3407c-37.82-6.866 52.361-6.2553 10.134 0.3915zm-33.839-6.5063c-5.6344-9.5677-11.924 7.3953 0 0zm-315.65-3.7408c-0.61117-14.36-2.2054 15.966 0 0zm286.02-2.8005c53.27-3.6796 112.81 13.933 147.11-31.529 61.898 1.0701-0.83664-59.634-28.256-65.679-48.111-4.9486-87.099-42.319-101.13-87.556-31.447 25.832-87.733 20.864-113.54 36.266 33.051 38.822 50.124 81.339-3.2774 115.14-18.787 20.067-28.909 46.521 10.191 34.277 29.631-0.429 59.265-0.6953 88.898-0.9196zm-264.43-26.558c36.503-15.003 105.74-10.896 98.034-65.973-33.991-19.216-66.544-51.705-85.983-63.999 3.6366-52.582-6.9118-79.57 38.764-117.64 18.439-33.698 92.804-20.018 90.235-48.657-22.254-28.405-22.619-134.12-70.704-75.82-47.047 6.9897-97.234-35.614-122.81-75.572-25.01-49.579-34.412 57.515-46.383 77.857 31.928 108.61 51.518 221.01 78.817 331.07 6.7942 8.6235 2.6647 57.793 20.026 38.736zm-15.201-7.069c-7.5166-16.596-12.657 3.7586 0 0zm635.42-98.353c70.224-14.543 68.391-104.74 20.731-143.86-47.044-27.862-25.191-123.94 32.96-98.16-41.775-2.0438 27.99 29.308-7.4788 30.91-0.4091 28.052 61.626 71.033 37.75 15.465-8.785-41.991 18.605 27.693 15.317-16.017 0.2975-26.787-35.641-49.038-17.772-55.928-52.143-10.63-117.39 37.525-99.772 93.79 28.272 42.797 91.869 111.58 23.304 150.81-62.917 19.673-119.9-29.83-163.73-68.642-43.65-37.492 1.9474 42.516 28.31 46.76 36.572 28.613 82.096 54.957 130.38 44.87zm-436.15-191.38c10.755-30.498-48.016-72.226-33.19-25.93 5.2847 12.639 16.37 33.79 33.19 25.93zm52.092-57.118c30.696-18.836 19.989-61.497-18.88-45.259-50.762-35.862-54.012 57.431-3.0942 47.709 7.3797 0.24569 14.927 0.17892 21.975-2.4494zm-74.17-4.9776c22.836-30.988-39.455-69.914-35.1-27.028 3.6614 14.728 17.284 35.911 35.1 27.028zm363.5-2.5023c27.827-10.155 76.753-14.434 100.25-46.092 24.247-27.917-64.385-25.545-87.748-38.776-25.124-0.71223-52.157 52.383-28.296 0.69115-0.0993-11.558-25.519-25.91-19.217-47.555-14.128-16.884-82.94-16.813-26.448-23.042 47.999 2.1709-35.801-86.04-57.038-37.753-32.471 18.917-13.811-8.9546-13.834-18.962-22.046 11.857-69.843 75.177-50.808 24.705-26.268 13.089-89.838 60.801-74.978 15.678-25.824 10.29-44.632 62.957-62.891 62.675-13.359-61.224-52.82 68.928 6.668 54.551 21.145 4.1949 87.12-9.4512 68.161-20.596 39.336-10.124 73.54-38.071 92.951-71.783-27.159 48.137 54.105 0.48805 19.954 39.342 9.9587 59.295 77.853 66.335 111.23 105.98 5.4419 1.0824 21.357 11.493 22.045 0.93925zm-4.7474-21.153c-48.376-7.6253 104.72-28.211 34.009-3.1025-10.742 3.9802-22.701 6.7642-34.009 3.1025zm-65.253-33.964c-29.301-8.8228-45.395-38.239-7.1888-13.132 22.768 0.37212 52.821 5.3533 15.668 14.878zm-578.16 43.45c3.4692-32.612 32.777-81.287 19.345-105.29-7.6745 28.304-28.311 99.389-19.345 105.29zm188.66-22.209c23.103-21.012 4.3929-51.505-12.216-20.154 17.852-51.523-27.902-86.03-68.072-104.98-28.27 6.689 23.712-86.702-25.736-78.655-23.787 22.771-19.08 50.271 12.157 22.515-23.46 49.983-30.994 90.643 6.8943 134.93 28.176 30.038 59.581 47.709 86.972 46.349zm-46.7-47.316c-26.595-6.8122-52.943-54.687-16.125-15.876 1.8706 3.3675 37.157 22.923 16.125 15.876zm133.93 23.257c23.811-14.815-24.946-86.124-22.566-32.451-30.874-62.571-23.862 61.818 22.566 32.451zm-284.81-18.982c-2.4676-2.716 1.3384 7.804 0 0zm834.74-20.75c31.357-34.527 78.466-121.28 4.1403-134.13-44.719 16.88 44.178 15.709 28.8 49.799-6.579-33.24-83.903-23.98-35.587-5.8413 27.798 10.105 31.166 44.306 2.1656 13.311-43.789-16.553-22.102 19.986 3.1588 29.228 13.2 5.0524-26.69 69.226-2.6775 47.636zm-533.01-18.603c13.449-31.741 49.566-75.28 72.886-82.651-20.168 10.659-49.683 86.308-10.955 37.16 22.822-23.953 68.631-56.879 90.834-57.189-13.865 14.155-53.013 59.002-7.6982 30.694 34.697-16.35 54.798-76.612 66.922-91.359 3.2358 20.247-26.111 89.007 8.9561 40.253 22.874-17.91 19.026-117.08 28.874-41.56 4.589 21.596-14.044 80.375 10.529 32.441 25.294-42.607-13.878-108.06-17.564-133.69 21.966 12.327 58.241 83.425 36.2 21.378-6.6201-24.265-57.114-60.798-4.7578-41.565-15.4-22.431-45.729-28.835-32.715-44.974-21.842-5.7235-70.547-8.6582-27.16-24.785-26.11-7.8446-51.767-5.4956-77.442 1.9353 40.804-37.772-52.631-9.4981-62.601 12.184-11.215-36.684-24.933 39.827-1.5452 27.132-26.535 4.6518-69.395 27.565-60.237 44.868-22.09-1.8938-84.815 28.247-31.012 25.254 37.151-7.8592-30.883 53.683 23.847 31.953 19.182-10.198 70.104 12.117 35.584-22.319-41.4-13.239 43.27-4.7035 24.759 29.925 26.229 60.075-85.514 68.111-74.903 62.465 37.174 9.2937-20.723 10.188 14.732 27.984 42.946 6.6161 88.911-41.85 86.529-88.595-2.9234-32.677 11.809 26.354 21.933-9.92 27.807-33.134-23.664 58.74 1.5131 31.625-7.0533 45.651 46.517-53.597 31.121-46.023 26.057 69.245-61.343 96.722-103.64 129.22-21.453 16.513-59.044 63.074-28.295 10.024-19.695-49.316-47.959 42.58-37.211-6.1427-5.9075-24.035-36.108 45.58-24.02 66.23 3.3559 34.126 34.557-70.22 28.249-7.1581 3.6208 9.6446 3.1866 80.011 18.291 35.206zm124.02-119.45c52.272-28.086 57.601-94.463 50.692-126.66-4.7057-16.539-16.574-25.908-12.516-36.356 32.361-29.616 33.66 17.136 20.484 32.778 53.547-8.9613 12.789-93.732-29.03-48.798-24.237-3.0772 53.58-45.929 63.188-3.8008 6.2818 35.485-8.9322 65.443 3.0051 102.52-4.1376 11.846-20.717-56.708-21.745-6.1495-7.537 38.099-30.703 83.046-74.078 86.469zm-108.79-133.15c9.1373-15.785 28.62-8.3682 3.9027 0.81644zm46.272-2.5764c-26.918-0.28016-46.021-31.514-7.7176-19.563 30.783-16.94 83.29-5.4291 29.707 19.04l-11.985 1.8078zm22.918-10.79c3.7411-26.985-38.882 17.333 0 0zm-53.733-18.09c5.4371-13.627 4.3067 4.2341 0 0zm90.235-14.676c-17.789-33.047 72.613-49.13 20.883-23.982-11.496 1.1828-14.102 23.412-20.883 23.982zm-33.391-13.266c-6.7487-31.015 50.174-51.144 13.365-15.961l-6.1309 7.7075zm-175.26 323.65c23.879-23.201 23.153-83.046 30.827-100.33-19.223 34.171-105.46 73.198-30.827 100.33zm-199.05-14.051c-4.3575-42.31-14.378 32.299 0-1e-5zm41.949-31.893c7.1079-35.333-82.108-8.1425-27.297 2.7389 8.6468-4.6476 21.478 8.3945 27.297-2.7389zm120.18-6.8315c34.376-30.39 64.453-67.928 98.598-94.184 6.8414-42.217-46.66-67.915-34.768-115.72-40.439 19.322-89.323 62.893-123.32 73.178-15.569-28.644 5.6804 26.731-17.629 37.368 33.838 13.481 28.055 54.218 28.271 86.092 10.929 8.1872 41.394 31.163 48.845 13.27zm-114.78-19.372c12.693-42.529-92.205-4.3775-30.935 0.1023 10.263-3.4032 22.904 8.7998 30.935-0.1023zm-67.257-15.381c22.588-48.54-22.884 9.0424 0 0zm67.367-17.833c3.3881-37.752-84.21-6.7121-26.088 3.1955 7.7764-1.644 21.121 5.2058 26.088-3.1955zm851.34 0.57049c-4.1135-6.5372-3.2204 9.1781 0 0zm-841.43-22.768c14.593-42.287-85.903-17.263-28.611-5.1854 10.221-5.4523 21.949 13.813 28.611 5.1854zm269-43.843c35.126-37.186-30.238 0.28462-27.588-2.3107-5.936-14.153-14.778 17.72-23.373-5.7359-16.255 21.885 46.489 25.28 50.961 8.0466zm-241.55-10.041c-5.3894-21.724-62.185-11.069-14.716-1.6827 4.2643-0.97937 11.815 8.7659 14.716 1.6827zm179.68-14.603c9.0058-13.771 47.609 8.5692 46.255 0.72445 45.112-64.373-96.949 20.257-59.304-13.062-0.40903 1.669 15.369 31.363 13.049 12.337zm-168.61-35.505c20.056-22.562 9.5046-98.201-5.2622-91.76-11.947 24.404-38.054 45.385-30.523 75.147-7.6267 37.065 19.749 71.523 35.786 16.613zm-18.418-21.828c-4.7267-16.244 24.449-67.431 9.9219-18.387 7.0386 8.3341 4.5542 27.471-9.9219 18.387zm175.77 28.24c-23.636-53.778-24.984 9.1 0 0zm19.827-62.244c45.414-36.732-38.46 7.0461 0 0zm56.181-37.458c9.8627-21.592-20.955 7.4163 0 0zm383.97 826.55c7.454-1.151-2.2925 2.2861 0 0zm-45.083-1.8407c-36.591-1.9222 46.927-0.3663 0 0zm21.016 0.4752c11.692-1.9368 2.418 2.0581 0 0zm188.53-521.72c1.1668-6.0099 1.1668 6.0099 0 0zm5.228-20.778c0.8579-5.1386 1.3524 6.0687 0 0zm1.3334-5.3333c0.8576-5.1386 1.3525 6.0687 0 0zm-6.0339-7.5556c5.1402-15.156 1.5567 11.436 0 0zm8.7005-3.1111c0.8579-5.1386 1.3524 6.0687 0 0zm1.3334-5.3333c0.8576-5.1386 1.3525 6.0687 0 0zm1.3333-5.3333c0.8579-5.1386 1.3524 6.0687 0 0zm2.6667-10.667c0.8576-5.1386 1.3525 6.0687 0 0zm1.4547-5.2222c2.6771-16.703 2.02 3.868 0 0zm-229.02-176.86c-6.776-8.6164 12.394 9.3417 0 0zm-43.873-5.1393c1.6125-4.8748 3.2884 4.7497 0 0zm14.676-13.318c3.3744-2.4384 5.3083 4.2952 0 0zm-43.676-4.1221c-8.7478-9.9498 13.653 5.637 0 0zm21.497-10.227c-4.4946-5.7771 10.411 7.5716 0 0zm-25.163-7c3.4066-4.7833 3.4066 4.7833 0 0z" fill="#171219"/>
 </g>
</svg>
